<?xml version="1.0" encoding="utf-8"?>
<!-- Generator: Adobe Illustrator 20.0.0, SVG Export Plug-In . SVG Version: 6.00 Build 0)  -->
<svg version="1.1" id="Layer_1" xmlns="http://www.w3.org/2000/svg" xmlns:xlink="http://www.w3.org/1999/xlink" x="0px" y="0px"
	 viewBox="0 0 233 75" style="enable-background:new 0 0 233 75;" xml:space="preserve">
<style type="text/css">
	.st0{fill:#FFFFFF;}
</style>
<g>
	<path class="st0" d="M51,29.8h12.3v2.8h-8.7v2.2H63v2.7h-8.3v4H51C51,41.6,51,29.8,51,29.8z"/>
	<path class="st0" d="M65.4,33.3h2.9v1.6h0c0.4-1.3,1.6-1.7,3.1-1.7c2.3,0,3.2,1,3.2,3.3c0,0.2,0,0.4,0,0.7h-2.7
		c0-1.1-0.2-1.6-1.5-1.6c-1.1,0-1.8,0.4-1.8,1.4v4.6h-3.1V33.3z"/>
	<path class="st0" d="M75.8,38.7c0-2.3,1.6-2.4,4.6-2.4c1.7,0,2.7,0,3.3,0.7v-0.7c0-0.8-0.2-1.1-1.5-1.1h-1.8
		c-0.9,0-1.2,0.1-1.2,0.7h-3c0-2.3,1.1-2.6,3.8-2.6h3.6c2.2,0,3.3,1,3.3,3v5.5h-3v-0.9c-0.9,0.9-1.2,1.1-2.8,1.1h-2.1
		c-1.9,0-3.1-0.4-3.1-2.4L75.8,38.7L75.8,38.7z M81.4,39.8c2.2,0,2.4-0.3,2.4-0.9c0-0.6-0.2-0.8-1.9-0.8h-1.4c-1.3,0-1.6,0.3-1.6,1
		c0,0.5,0.4,0.8,1.6,0.8L81.4,39.8L81.4,39.8z"/>
	<path class="st0" d="M88.8,33.3h3.1v1.3h0c0.6-1.2,1.6-1.5,3.3-1.5c1.9,0,4.7,0.1,4.7,3.7v4.8h-3.1v-4.8c0-0.8-0.7-1.2-2-1.2h-0.7
		c-1.3,0-2.1,0.6-2.1,1.8v4.2h-3.1L88.8,33.3L88.8,33.3z"/>
	<path class="st0" d="M102.1,29.8h3.1V36h0.6l2.8-2.7h4.1l-4.2,3.9l4.7,4.4h-4l-3.3-3.3h-0.6v3.3h-3.1L102.1,29.8L102.1,29.8z"/>
	<path class="st0" d="M114.8,29.8h3.1v11.8h-3.1V29.8z"/>
	<path class="st0" d="M123.6,41.6h-3.1v-8.3h3.1V41.6z M123.6,32.2h-3.1v-2.4h3.1V32.2z"/>
	<path class="st0" d="M125.9,33.3h3.1v1.3h0c0.6-1.2,1.6-1.5,3.3-1.5c1.9,0,4.7,0.1,4.7,3.7v4.8h-3.1v-4.8c0-0.8-0.7-1.2-2-1.2h-0.7
		c-1.3,0-2.1,0.6-2.1,1.8v4.2h-3.1L125.9,33.3L125.9,33.3z"/>
	<path class="st0" d="M147.4,29.8h12.9v2.7H151v1.9h8.8v2.4H151v1.9h9.5v2.8h-13.1L147.4,29.8L147.4,29.8z"/>
	<path class="st0" d="M162.8,29.8h3.1v11.8h-3.1V29.8z"/>
	<path class="st0" d="M167.9,37c0-3.1,1.6-3.8,3.9-3.8h2.2c3.3,0,4.7,0.7,4.7,3.6v1.4H171v0.5c0,0.9,0.6,1.1,1.9,1.1h1
		c1.7,0,1.8-0.5,1.8-0.9h2.9v0.4c0,2.1-1.9,2.5-4.1,2.5h-2.4c-2.1,0-4.3-0.4-4.3-3.9L167.9,37L167.9,37z M175.6,36.3
		c0-1-0.5-1.2-2.3-1.2c-2,0-2.3,0.2-2.3,1.2H175.6z"/>
	<path class="st0" d="M180,37c0-3.1,1.6-3.8,3.9-3.8h3.5c2.3,0,3.7,0.8,3.7,2.8v0.8h-3c0-0.8-0.4-1.2-1.8-1.2H185
		c-1.3,0-1.9,0.4-1.9,1.3v1.1c0,1.1,0.7,1.4,1.7,1.4h1.6c0.9,0,1.7-0.2,1.7-1v-0.2h3v0.7c0,2.2-1.9,2.9-3.7,2.9h-3.2
		c-2.1,0-4.3-0.4-4.3-3.9L180,37L180,37z"/>
	<path class="st0" d="M193.6,35.5H192v-2.3h1.6v-2h3.1v2h4.9v2.3h-4.9v3.2c0,0.6,0.5,0.8,1.2,0.8c1,0,1.3-0.2,1.3-1v-0.6h2.7v1
		c0,1.6-1,2.8-3.5,2.8h-1.2c-1.9,0-3.6-0.6-3.6-2.9V35.5L193.6,35.5z"/>
	<path class="st0" d="M203.7,33.3h2.9v1.6h0c0.4-1.3,1.6-1.7,3.1-1.7c2.3,0,3.2,1,3.2,3.3c0,0.2,0,0.4,0,0.7h-2.7
		c0-1.1-0.2-1.6-1.5-1.6c-1.1,0-1.8,0.4-1.8,1.4v4.6h-3.1L203.7,33.3L203.7,33.3z"/>
	<path class="st0" d="M218,41.6h-3.1v-8.3h3.1V41.6z M218,32.2h-3.1v-2.4h3.1V32.2z"/>
	<path class="st0" d="M219.9,37c0-3.1,1.6-3.8,3.9-3.8h3.5c2.3,0,3.7,0.8,3.7,2.8v0.8h-3c0-0.8-0.4-1.2-1.8-1.2H225
		c-1.3,0-1.9,0.4-1.9,1.3v1.1c0,1.1,0.7,1.4,1.7,1.4h1.6c0.9,0,1.7-0.2,1.7-1v-0.2h3v0.7c0,2.2-1.9,2.9-3.7,2.9h-3.2
		c-2.1,0-4.3-0.4-4.3-3.9L219.9,37L219.9,37z"/>
	<path class="st0" d="M43.7,33.2c0.6,0.7,0.7,1.3,0.7,2.1h-9.6c-0.3-3.7-2.1-7.1-5.4-9.3c-2.7-1.9-6.6-2.2-9.8-1.4
		c-4.2,1.4-7.9,5.5-8.2,10l0,0.7H2c0-1,0-1.4,0.6-2.1c0,0,14.4-14.6,20.5-20.8L43.7,33.2z"/>
	<polygon class="st0" points="16.9,29.2 16.9,45.9 20,43.9 20,36.7 22.5,34.7 22.5,31 20,33 20,31.2 23.1,28.6 23.1,39.9 29.4,45.9 
		29.4,41.8 26.6,39.4 26.6,37.4 29.4,39.8 29.4,36.4 26.6,33.9 26.6,31.9 29.4,34.4 29.4,30.1 23.8,24.6 22.6,24.6 	"/>
	<path class="st0" d="M43.7,38.6c0.7-0.7,0.7-1.2,0.7-2l-9.6,0c-0.3,3.7-2.1,7.1-5.4,9.3c-2.7,1.9-6.6,2.2-9.8,1.4
		c-4.2-1.4-7.9-5.5-8.2-10l0-0.7H2c0,1.3,0,1.5,0.7,2.2C9.3,45.4,17,53.2,23.2,59.4L43.7,38.6z"/>
</g>
</svg>
