<?xml version="1.0" standalone="no"?>
<!DOCTYPE svg PUBLIC "-//W3C//DTD SVG 20010904//EN"
 "http://www.w3.org/TR/2001/REC-SVG-20010904/DTD/svg10.dtd">
<svg version="1.0" xmlns="http://www.w3.org/2000/svg"
 width="346.000000pt" height="84.000000pt" viewBox="0 0 346.000000 84.000000"
 preserveAspectRatio="xMidYMid meet">

<g transform="translate(0.000000,84.000000) scale(0.100000,-0.100000)"
fill="#ffffff" stroke="none">
<path d="M779 684 c25 -22 57 -44 72 -50 54 -24 98 -108 100 -193 1 -42 2 -43
9 -16 13 51 11 130 -5 174 -16 47 -12 53 9 14 8 -16 15 -23 16 -17 0 18 -42
75 -73 98 -20 15 -47 21 -100 24 l-72 4 44 -38z"/>
<path d="M2093 709 c-64 -19 -107 -104 -85 -169 13 -35 12 -36 -54 -45 l-52
-7 -10 64 c-6 35 -14 85 -18 111 l-6 48 -71 -3 -71 -3 -73 -155 c-63 -136 -76
-157 -104 -168 -17 -7 -33 -11 -35 -10 -2 2 9 79 25 171 l28 168 -90 -3 -91
-3 -45 -102 c-25 -56 -49 -103 -52 -103 -3 0 -9 30 -13 68 -4 37 -9 84 -13
105 l-6 37 -88 0 c-49 0 -89 -2 -89 -3 0 -2 -16 -97 -36 -212 -19 -114 -34
-209 -32 -210 2 -2 23 -5 48 -6 l45 -4 23 140 c13 77 26 151 29 165 5 20 40
-223 42 -291 1 -12 -22 -21 -91 -37 -255 -59 -435 -56 -524 9 -21 16 -19 12 8
-14 54 -53 126 -71 269 -70 130 1 231 18 427 68 72 19 150 35 172 35 27 0 40
4 40 14 0 7 9 16 20 19 17 4 20 2 15 -14 -6 -17 -1 -19 47 -19 51 0 54 2 73
37 17 31 28 39 70 50 73 19 74 18 77 -34 l3 -48 63 -3 64 -3 -7 64 c-8 75 -18
68 119 91 75 13 93 13 121 2 40 -17 50 -32 35 -51 -19 -23 -83 -19 -106 6 -16
17 -26 20 -64 14 -92 -13 -95 -17 -50 -69 112 -127 384 -60 367 92 l-5 42 34
0 c19 0 34 -5 34 -10 0 -6 -14 -38 -31 -71 -56 -113 -57 -109 5 -109 l53 0 41
93 c35 80 44 92 68 95 34 5 41 -6 49 -87 10 -104 8 -101 77 -101 l61 0 -7 53
c-4 28 -10 69 -13 90 -5 35 -4 37 23 37 45 0 278 -36 383 -59 52 -12 96 -19
98 -17 7 7 -249 78 -377 103 -74 15 -136 28 -138 29 -2 1 -10 45 -19 98 l-16
96 -69 0 -69 0 -39 -84 -39 -85 -88 -3 c-132 -5 -247 37 -213 77 18 21 53 19
84 -6 24 -19 31 -20 76 -9 32 8 50 17 50 27 0 23 -57 71 -98 83 -44 12 -125
12 -169 -1z m-680 -194 c-33 -185 -34 -187 -75 -201 -21 -7 -38 -10 -38 -6 0
9 123 292 126 289 1 -1 -5 -38 -13 -82z m369 -27 c3 -28 -1 -32 -34 -44 -21
-7 -38 -9 -38 -4 0 5 12 37 27 71 26 59 27 61 34 35 4 -15 9 -41 11 -58z m784
45 c-11 -11 -17 4 -9 23 7 18 8 18 11 1 2 -10 1 -21 -2 -24z"/>
<path d="M180 702 c0 -4 -13 -86 -30 -182 -16 -96 -32 -190 -35 -208 l-6 -32
60 0 60 0 6 37 c10 59 13 66 46 102 37 40 38 38 64 -64 l18 -75 64 0 c35 0 63
3 63 7 0 5 -59 200 -75 250 -2 7 19 39 48 70 29 32 61 68 71 81 l19 22 -61 0
-62 0 -77 -89 c-43 -49 -78 -89 -79 -88 -1 1 4 36 11 77 8 41 14 81 14 88 1 8
-17 12 -59 12 -33 0 -60 -3 -60 -8z"/>
<path d="M577 639 c-25 -15 -57 -84 -64 -138 -7 -62 9 -109 51 -150 60 -58
148 -55 218 9 38 36 40 39 15 30 -16 -6 -47 -10 -70 -10 -108 0 -168 109 -117
210 24 48 34 51 25 10 -9 -40 11 -95 42 -120 36 -28 93 -27 121 3 23 25 33 62
10 39 -35 -35 -95 6 -83 57 6 27 3 33 -27 51 -35 21 -92 26 -121 9z"/>
<path d="M904 298 l-19 -23 23 19 c21 18 27 26 19 26 -2 0 -12 -10 -23 -22z"/>
<path d="M1356 173 c-4 -21 -9 -46 -12 -55 -4 -14 1 -18 24 -18 37 0 50 15 54
65 3 38 2 40 -28 43 -29 3 -32 0 -38 -35z m44 7 c0 -5 -4 -10 -10 -10 -5 0
-10 5 -10 10 0 6 5 10 10 10 6 0 10 -4 10 -10z m0 -38 c0 -13 -12 -22 -22 -16
-10 6 -1 24 13 24 5 0 9 -4 9 -8z"/>
<path d="M1697 203 c-4 -6 -10 -32 -13 -57 -7 -46 -7 -46 23 -46 59 0 87 72
31 78 -15 2 -28 10 -30 20 -2 12 -6 13 -11 5z m47 -52 c9 -15 -23 -36 -36 -23
-5 5 -7 15 -4 21 9 13 33 14 40 2z"/>
<path d="M2032 198 c-7 -7 -12 -19 -12 -28 0 -9 -5 -21 -11 -27 -23 -23 -2
-44 38 -40 30 3 38 9 44 31 7 23 5 26 -12 21 -21 -7 -25 5 -8 22 13 13 4 33
-15 33 -6 0 -17 -5 -24 -12z m18 -68 c0 -5 -4 -10 -10 -10 -5 0 -10 5 -10 10
0 6 5 10 10 10 6 0 10 -4 10 -10z"/>
<path d="M2177 203 c-3 -5 -8 -29 -12 -55 -8 -55 8 -67 20 -15 l8 32 6 -30 c7
-35 21 -33 38 4 l11 26 1 -32 c1 -18 5 -33 10 -33 8 0 21 55 21 93 0 28 -27
20 -40 -13 -7 -16 -16 -30 -21 -30 -5 0 -9 14 -9 30 0 28 -21 42 -33 23z"/>
<path d="M2405 193 c-12 -27 -14 -93 -4 -93 5 0 12 14 16 30 3 17 9 33 13 35
10 6 1 45 -10 45 -4 0 -11 -8 -15 -17z"/>
<path d="M1452 168 c-17 -17 -15 -57 4 -65 8 -3 27 0 40 6 35 16 31 65 -6 69
-14 2 -31 -3 -38 -10z m48 -22 c0 -8 -5 -18 -11 -22 -14 -8 -33 11 -25 25 10
16 36 13 36 -3z"/>
<path d="M1547 173 c-3 -5 -7 -20 -8 -35 -5 -33 14 -38 21 -7 8 32 33 38 29 8
-4 -31 14 -37 21 -8 9 37 30 35 30 -2 0 -40 17 -28 22 16 3 30 3 30 -54 33
-31 1 -59 -1 -61 -5z"/>
<path d="M1790 166 c-6 -8 -10 -25 -8 -38 2 -19 10 -23 40 -24 37 -2 47 11 48
59 0 22 -62 24 -80 3z m54 -15 c9 -15 -23 -36 -36 -23 -5 5 -7 15 -4 21 9 13
33 14 40 2z"/>
<path d="M1893 165 c-3 -9 2 -22 13 -30 18 -14 18 -14 -4 -15 -13 0 -20 -4
-17 -10 10 -16 45 -12 52 6 4 10 -1 22 -10 29 -23 17 -21 24 5 17 14 -3 19 -2
14 6 -10 17 -46 15 -53 -3z"/>
<path d="M2298 155 c-21 -47 31 -75 66 -36 26 29 13 61 -25 61 -22 0 -32 -7
-41 -25z m56 -4 c9 -15 -23 -36 -36 -23 -5 5 -7 15 -4 21 9 13 33 14 40 2z"/>
<path d="M2451 166 c-20 -23 -10 -60 17 -64 32 -5 54 16 50 47 -2 20 -9 27
-29 29 -14 2 -31 -4 -38 -12z m49 -20 c0 -8 -5 -18 -11 -22 -14 -8 -33 11 -25
25 10 16 36 13 36 -3z"/>
<path d="M2546 164 c-10 -25 -7 -66 4 -59 6 3 10 13 10 22 0 9 7 25 17 35 15
17 15 18 -4 18 -12 0 -24 -7 -27 -16z"/>
<path d="M2602 168 c-15 -15 -16 -54 -1 -63 13 -9 59 2 59 14 0 4 -11 6 -25 3
-15 -2 -25 0 -25 7 0 6 14 11 31 11 24 0 30 4 27 18 -4 21 -48 28 -66 10z m43
-8 c3 -5 -1 -10 -10 -10 -9 0 -13 5 -10 10 3 6 8 10 10 10 2 0 7 -4 10 -10z"/>
<path d="M2693 165 c-3 -9 2 -22 13 -30 18 -14 18 -14 -4 -15 -13 0 -20 -4
-17 -10 10 -16 45 -12 52 6 4 10 -1 22 -10 29 -23 17 -21 24 5 17 14 -3 19 -2
14 6 -10 17 -46 15 -53 -3z"/>
</g>
</svg>
