<?xml version="1.0" standalone="no"?>
<!DOCTYPE svg PUBLIC "-//W3C//DTD SVG 20010904//EN"
 "http://www.w3.org/TR/2001/REC-SVG-20010904/DTD/svg10.dtd">
<svg version="1.0" xmlns="http://www.w3.org/2000/svg"
 width="290.000000pt" height="120.000000pt" viewBox="0 0 290.000000 120.000000"
 preserveAspectRatio="xMidYMid meet">

<g transform="translate(0.000000,120.000000) scale(0.100000,-0.100000)"
fill="#ffffff" stroke="none">
<path d="M473 770 c-51 -31 -43 -70 8 -42 26 15 31 15 39 2 5 -8 8 -20 6 -25
-12 -35 -49 -284 -43 -298 4 -10 17 -17 34 -17 l28 0 28 158 c22 125 32 161
48 175 52 43 56 14 25 -160 -28 -160 -26 -173 25 -173 25 0 29 4 29 28 0 15
11 87 25 161 25 132 37 160 73 161 22 0 23 -22 2 -134 -25 -137 -25 -178 -2
-199 23 -21 68 -22 105 -2 26 13 31 13 50 0 51 -36 150 -6 181 53 9 17 26 32
40 34 22 4 24 2 23 -28 -2 -64 61 -94 123 -60 21 12 29 12 54 -1 60 -31 161 6
181 66 3 9 20 23 38 31 17 8 43 31 55 51 16 25 29 35 41 32 16 -4 16 -10 4
-67 -7 -36 -9 -74 -4 -92 6 -25 12 -29 49 -32 24 -2 50 3 64 12 20 13 26 13
42 0 28 -20 80 -18 100 5 17 19 18 19 37 0 58 -58 156 14 189 139 11 43 16 47
37 34 9 -6 9 -23 1 -74 -16 -93 -4 -118 55 -118 23 0 52 6 63 14 17 12 22 12
39 0 10 -8 28 -14 39 -14 19 -1 17 -4 -10 -28 -56 -48 -67 -89 -34 -122 43
-43 123 -12 157 62 16 33 73 294 73 332 0 10 -58 7 -65 -4 -4 -7 -12 -7 -25 0
-72 38 -160 -38 -160 -139 0 -35 -3 -41 -25 -47 -14 -4 -29 -3 -32 0 -10 9 12
129 30 164 l14 29 -68 -5 c-54 -4 -71 -1 -84 12 -20 20 -39 20 -55 1 -10 -13
-10 -19 5 -35 16 -17 16 -25 5 -64 -16 -58 -63 -116 -81 -99 -9 9 -8 29 5 95
9 46 16 86 16 91 0 11 -58 9 -65 -3 -4 -7 -12 -7 -25 0 -42 23 -104 1 -135
-46 -10 -16 -21 -53 -24 -83 -6 -53 -8 -56 -35 -59 -29 -4 -29 -4 -23 42 4 25
15 70 25 101 17 49 17 55 3 51 -62 -18 -91 -17 -126 4 -54 33 -84 10 -53 -40
11 -17 9 -24 -13 -46 l-26 -26 -7 35 c-8 45 -36 68 -88 74 -78 8 -148 -60
-148 -143 0 -35 -4 -43 -22 -48 -40 -10 -43 8 -22 116 l19 103 63 3 c46 2 62
7 62 17 0 12 -14 15 -59 15 l-59 0 2 33 c1 30 -1 32 -36 35 -37 3 -38 3 -38
-32 l0 -36 -60 0 c-47 0 -60 -3 -60 -15 0 -12 13 -15 55 -15 30 0 55 -2 55 -5
0 -29 -26 -113 -39 -122 -25 -19 -41 -15 -41 11 0 38 -10 56 -41 71 -87 45
-180 -16 -195 -127 -5 -33 -11 -48 -25 -51 -36 -10 -40 15 -19 124 25 132 26
181 2 202 -23 21 -71 22 -100 1 -20 -14 -24 -14 -44 0 -29 21 -77 20 -106 0
-21 -15 -25 -15 -41 0 -24 22 -69 20 -108 -4z m600 -176 c3 -4 -1 -17 -9 -29
-12 -19 -13 -28 -4 -45 23 -43 -32 -119 -60 -85 -16 20 -7 108 15 141 15 23
44 32 58 18z m413 -5 c3 -6 1 -15 -6 -19 -9 -5 -11 -21 -6 -53 6 -39 4 -48
-19 -73 -25 -29 -25 -29 -40 -9 -18 23 -13 79 12 133 15 32 45 43 59 21z m494
-26 c0 -15 -9 -46 -20 -69 -35 -72 -76 -66 -65 9 8 52 32 87 61 87 19 0 24 -5
24 -27z m520 2 c0 -36 -30 -104 -50 -115 -42 -22 -51 59 -13 116 22 34 63 33
63 -1z m-52 -251 c-7 -15 -23 -34 -35 -42 -21 -13 -23 -13 -30 3 -4 13 4 28
32 53 41 38 56 31 33 -14z"/>
<path d="M2638 699 c-22 -12 -23 -42 -3 -59 18 -15 47 -10 53 10 4 12 2 13 -9
3 -16 -15 -43 -17 -34 -3 4 6 11 8 16 5 5 -4 9 3 9 15 0 12 5 18 10 15 6 -3
10 -1 10 5 0 7 -8 9 -21 5 -15 -5 -19 -4 -15 4 9 13 6 13 -16 0z m-1 -41 c-3
-7 -5 -2 -5 12 0 14 2 19 5 13 2 -7 2 -19 0 -25z"/>
</g>
</svg>
