<svg id="pedrolloLogo" version="1.1" xmlns="http://www.w3.org/2000/svg" viewBox="0 0 279 54" xml:space="preserve"> <style type="text/css">.logotype{fill:#ffffff;}.pictogram{fill:#ffffff;}</style> <path class="pictogram" d="M22.4,22.5L40,22.4c0,0.3,0,0.7-0.1,1c0,0-11.6-0.1-19,0.6c-8,0.7-12.7,1.5-20.3,3.1c-0.3-1.2-0.6-2.5-0.7-3.9 L22.4,22.5z M27.9,27.3c-4.9,0.7-7.7,1.3-12.4,3.1c-4.1,1.6-10,5.2-10,5.2c3.7,3.8,8.8,6.2,14.5,6.2c9.3,0,17.1-6.3,19.4-14.9 C39.4,26.8,32.4,26.7,27.9,27.3z M21,19.8c-8-0.7-12.7-1.5-20.3-3.1C0.3,18,0.1,19.2,0,20.6l22.4,0.7L40,21.4c0-0.3,0-0.7-0.1-1 C40,20.4,28.4,20.5,21,19.8z M22.2,25.3c-5.6,0.7-8.7,1-14.1,2.5c-2.5,0.7-6.5,2-6.5,2c0.5,1.1,1.1,2.2,1.8,3.2 c1.3-0.6,2-1.1,3.3-1.7c6.2-2.8,10.1-3.5,16.8-4.6c6.2-1,16.1-0.8,16.1-0.8c0.1-0.5,0.2-1,0.3-1.5C39.9,24.4,29.1,24.5,22.2,25.3 L22.2,25.3z M22.2,18.5c6.8,0.8,17.7,0.9,17.7,0.9h0c-0.1-0.5-0.2-1-0.3-1.5c0,0-9.9,0.1-16.1-0.8c-6.7-1-10.6-1.7-16.8-4.6 c-1.3-0.6-2-1-3.3-1.7c-0.7,1-1.3,2-1.8,3.2c0,0,3.9,1.3,6.4,2C13.5,17.5,16.7,17.9,22.2,18.5z M27.9,16.5 c4.4,0.6,11.5,0.5,11.5,0.5C37.1,8.4,29.3,2.1,20,2.1c-5.7,0-10.8,2.4-14.5,6.1c0,0,5.9,3.6,10,5.2C20.2,15.3,23,15.9,27.9,16.5z"></path> <path class="logotype" d="M87.2,22.5c-2.7,10-12.3,18.1-23.6,18.1v0c-5.7,0-7.1-2.7-7.1-2.7l2.3-8.3c0,0,1.4,2.2,6.9,2.4 S77,27.4,78.5,21.8c0.7-2.6,0.3-5.1-1-6.9c-1.3-1.7-3.4-2.6-5.9-2.6c-5.6,0-11.4,4.6-12.9,10.2L52.2,47l-10.3,5.3l8.2-30.5 c2.7-10,13.1-18.2,23.1-18.2c4.9,0,9.1,1.9,11.8,5.4C87.8,12.6,88.5,17.4,87.2,22.5z M102.9,31.8c-3.7,0-6.4-2.1-7.1-5.3 h0h13.2h1.1l0.3-1l1.6-6l0.5-1.8H98.4l0,0c2.6-3.4,6.7-5.7,10.6-5.7h5.1l0.3-1l1.6-6l0.5-1.8h-5.8c-10.1,0-20.4,8.2-23.1,18.2 c-1.4,5.1-0.6,10,2.2,13.6c2.7,3.5,6.8,5.4,11.8,5.4h5.1l0.3-1l1.6-6l0.5-1.8H102.9z M144.2,22.3c1.4-5.1,0.6-10-2.2-13.6 c-2.7-3.5-6.8-5.4-11.8-5.4h-11.9l-0.3,1l-1.6,6l-0.5,1.8h12.7c2.5,0,4.5,0.9,5.8,2.6c1.4,1.8,1.7,4.2,1,6.9 c-1.5,5.6-7.3,10.2-12.9,10.2h0l-3.2,0l0.2-0.1l3.2-12.4l0.5-1.8h-8.8l-0.3,1l-5.4,20.1l-0.5,1.8H121 C131.1,40.5,141.5,32.3,144.2,22.3z M218.7,31.8h2.9l-2.3,8.8h-2.2l-0.2-0.1c0.1,0,0.1,0,0.2,0l-0.3,0l0.1,0 c-4.8-0.1-8.9-1.9-11.5-5.4c-2.5-3.3-3.4-7.6-2.5-12.2c-2.9,9.8-13.1,17.6-22.9,17.6c-4.9,0-9.1-1.9-11.8-5.4 c-2.8-3.6-3.5-8.4-2.2-13.6c0.3-1.1,0.7-2.2,1.2-3.3c-2,2.9-5,5.6-5,5.6l5.1,16.7H158l-4.5-14.4H152l-3.8,14.4h-8.8l6.1-23l10.7,0 h0.1c1.7,0,3.5-1.4,3.9-3.2c0.2-0.7,0.1-1.4-0.2-1.8c-0.3-0.4-0.8-0.6-1.5-0.6h-11.7l2.3-8.7l11,0c3.1,0,5.7,1.2,7.3,3.4 c1.7,2.3,2.2,5.3,1.4,8.5c0,0.2-0.1,0.3-0.2,0.5c4.4-7.2,12.6-12.3,20.6-12.3c4.9,0,9.1,1.9,11.8,5.4c2.4,3.1,3.3,7.2,2.6,11.5 l4.6-17h8.8l-5.1,19c-0.7,2.7-0.3,5.1,1,6.9C214.1,30.9,216.2,31.8,218.7,31.8z M193.4,14.8c-1.3-1.7-3.4-2.6-5.9-2.6 c-5.6,0-11.4,4.6-12.9,10.2c-0.7,2.7-0.3,5.1,1,6.9c1.3,1.7,3.4,2.6,5.9,2.6c5.6,0,11.4-4.6,12.9-10.2 C195.2,19.1,194.8,16.6,193.4,14.8z M274.3,8.8c2.8,3.6,3.5,8.4,2.2,13.6c-2.7,10-13.1,18.2-23.1,18.2c-4.9,0-9.1-1.9-11.8-5.4 c-0.7-1-1.3-2-1.8-3.1l-2.3,8.5h-2.2c-4.9,0-9.1-2-11.8-5.4c-2.8-3.6-3.5-8.4-2.2-13.6h0l4.9-18.2h8.8l-5.1,19 c-0.7,2.7-0.3,5.1,1,6.9c1.3,1.7,3.4,2.6,5.9,2.6h2.8c-1.1-3-1.3-6.5-0.3-10.2c2.7-10,13.1-18.2,23.1-18.2 C267.4,3.4,271.6,5.3,274.3,8.8z M266.8,14.8c-1.3-1.7-3.4-2.6-5.9-2.6c-5.6,0-11.4,4.6-12.9,10.2c-0.7,2.6-0.4,5.1,1,6.9 c1.3,1.7,3.4,2.6,5.9,2.6c5.6,0,11.4-4.6,12.9-10.2h0C268.5,19,268.1,16.5,266.8,14.8z"></path> </svg>
