<?xml version="1.0" encoding="UTF-8"?>
<svg id="Layer_1" xmlns="http://www.w3.org/2000/svg" version="1.1" viewBox="0 0 130 60">
  <!-- Generator: Adobe Illustrator 29.8.3, SVG Export Plug-In . SVG Version: 2.1.1 Build 3)  -->
  <defs>
    <style>
      .st0 {
        fill: #fff;
      }

      .st1 {
        fill: #e1001a;
      }
    </style>
  </defs>
  <g>
    <path class="st0" d="M63.04,32.42h-14.69c-4.22,0-7.11,1.06-8.74,5.53l-1.66,4.56c-1.63,4.47.5,5.53,4.72,5.53h14.69c4.22,0,7.11-1.05,8.74-5.53l1.66-4.56c1.63-4.47-.5-5.53-4.72-5.53ZM59.06,38.75l-1.08,2.95c-.81,2.22-1.58,3.06-3.79,3.06h-5.99c-2.22,0-2.37-.84-1.57-3.06l1.08-2.95c.69-1.9,1.58-3.06,4.05-3.06h5.49c2.47,0,2.51,1.16,1.82,3.06ZM37.54,38.02l.34-.94c1.03-2.82.7-4.66-3-4.66H10.38l-5.71,15.68h8.76l4.54-12.45h9.86c1.52,0,2.05.44,1.54,1.83l-.46,1.25c-.41,1.13-1.15,2.02-2.61,2.02h-8.2l4.68,7.36h11.02l-4.07-6.17c4.2,0,6.88-1.39,7.8-3.91ZM115.65,32.55l-15.35,15.31h6.35l2.44-2.43h9.57v2.43h8.15v-15.31h-11.15ZM118.65,42.63h-6.77l6.77-6.77v6.77ZM105.87,32.55l-9.44,9.45v-9.45h-9.01l-9.44,9.45v-9.45h-8.16v15.31h7.93l10.51-10.13v10.13h8.47l15.36-15.31h-6.23Z"/>
    <g>
      <path class="st0" d="M4.99,53.16v-.63h4.51v.63h-1.88v5.01h-.75v-5.01h-1.88Z"/>
      <path class="st0" d="M9.2,55.29c.08-.26.21-.49.38-.68.17-.19.38-.34.62-.45.25-.11.53-.17.85-.17s.61.06.86.17c.24.11.45.26.62.45.17.19.3.42.38.68.08.26.13.54.13.84s-.04.58-.13.84c-.08.26-.21.48-.38.68-.17.19-.38.34-.62.45-.25.11-.53.16-.86.16s-.61-.05-.85-.16c-.25-.11-.46-.26-.62-.45-.17-.19-.3-.42-.38-.68-.08-.26-.13-.54-.13-.84s.04-.58.13-.84ZM9.88,56.79c.07.19.16.35.27.48.12.13.25.23.41.3.16.07.32.1.49.1s.34-.03.49-.1c.16-.07.29-.17.41-.3.12-.13.21-.29.27-.48.07-.19.1-.41.1-.66s-.03-.47-.1-.66c-.07-.19-.16-.35-.27-.49-.12-.13-.25-.23-.41-.3-.16-.07-.32-.1-.49-.1s-.34.03-.49.1c-.16.07-.29.17-.41.3-.12.13-.21.29-.27.49-.07.19-.1.41-.1.66s.03.47.1.66Z"/>
      <path class="st0" d="M15.74,54.08v.59h-.81v2.54c0,.08,0,.14.02.19.01.05.04.08.07.11.04.03.09.04.15.05.07,0,.15.01.26.01h.31v.59h-.51c-.17,0-.32-.01-.45-.04-.12-.02-.22-.07-.3-.13-.08-.06-.13-.15-.17-.27-.04-.12-.06-.27-.06-.46v-2.6h-.7v-.59h.7v-1.23h.67v1.23h.81Z"/>
      <path class="st0" d="M19.77,58.26c-.17,0-.31-.05-.41-.15-.1-.1-.15-.26-.15-.48-.19.22-.4.38-.64.48-.25.1-.51.15-.79.15-.18,0-.36-.02-.52-.06-.16-.04-.31-.11-.43-.2-.12-.09-.22-.21-.29-.36-.07-.14-.11-.32-.11-.53,0-.23.04-.42.12-.57.08-.15.18-.27.31-.36.13-.09.28-.16.44-.21.17-.05.34-.09.51-.12.18-.04.36-.06.53-.08.17-.02.31-.04.44-.08.13-.03.23-.08.3-.15.07-.07.11-.16.11-.29,0-.15-.03-.27-.08-.36-.06-.09-.13-.16-.21-.21-.09-.05-.18-.08-.29-.09-.11-.02-.21-.02-.32-.02-.28,0-.52.05-.71.16-.19.11-.29.31-.31.61h-.67c.01-.25.06-.47.16-.64.09-.17.22-.31.38-.42.16-.11.34-.19.55-.23.21-.05.42-.07.65-.07.18,0,.37.01.55.04.18.03.35.08.49.16.15.08.27.2.36.34.09.15.13.34.13.58v2.1c0,.16,0,.27.03.35.02.07.08.11.19.11.06,0,.13-.01.21-.04v.52c-.12.07-.28.1-.48.1ZM18.83,56.2c-.14.03-.28.05-.43.07-.15.02-.3.04-.45.06-.15.02-.29.06-.41.11-.12.05-.22.13-.3.23-.08.1-.11.23-.11.4,0,.11.02.2.07.28.04.08.1.14.17.19.07.05.16.08.25.1.1.02.2.03.3.03.22,0,.41-.03.57-.09.16-.06.29-.14.39-.23.1-.09.17-.19.22-.3.05-.11.07-.21.07-.3v-.69c-.08.06-.2.11-.33.14Z"/>
      <path class="st0" d="M21.75,52.53v5.64h-.67v-5.64h.67Z"/>
      <path class="st0" d="M23.58,54.08v.6h.02c.31-.46.75-.7,1.32-.7.25,0,.48.05.69.16.21.11.35.28.43.54.14-.22.32-.39.54-.51.22-.12.47-.18.74-.18.21,0,.39.02.56.07.17.04.31.11.43.21.12.09.21.22.28.37.07.15.1.33.1.54v3h-.67v-2.68c0-.13-.01-.24-.03-.36-.02-.11-.06-.21-.12-.29-.06-.08-.14-.15-.24-.19-.1-.05-.24-.07-.4-.07-.33,0-.59.09-.78.28-.19.19-.29.44-.29.76v2.55h-.67v-2.68c0-.13-.01-.25-.04-.36-.02-.11-.06-.21-.12-.29-.06-.08-.14-.14-.23-.19-.1-.04-.22-.07-.38-.07-.2,0-.36.04-.5.12-.14.08-.25.17-.34.28-.09.11-.15.23-.19.34-.04.12-.06.22-.06.3v2.55h-.67v-4.09h.63Z"/>
      <path class="st0" d="M32.75,57.91c-.31.23-.69.35-1.15.35-.33,0-.61-.05-.85-.16-.24-.11-.44-.25-.61-.44-.16-.19-.29-.42-.37-.68-.08-.26-.13-.55-.14-.86,0-.31.05-.6.14-.85.1-.26.23-.48.4-.67.17-.19.37-.34.61-.44.23-.11.49-.16.77-.16.36,0,.66.07.91.23.24.15.43.34.58.57.14.23.25.48.3.76.06.27.08.53.07.78h-3.06c0,.18.02.35.06.51.05.16.12.3.23.43.11.12.24.22.4.3.16.07.36.11.58.11.28,0,.52-.07.7-.2.18-.13.3-.33.36-.6h.66c-.09.46-.29.8-.59,1.04ZM32.58,55.29c-.06-.14-.14-.26-.25-.37-.1-.1-.22-.18-.36-.25-.14-.06-.29-.09-.46-.09s-.33.03-.47.09c-.14.06-.26.14-.36.25-.1.11-.18.23-.24.37-.06.14-.09.29-.1.45h2.35c-.01-.16-.05-.31-.11-.45Z"/>
      <path class="st0" d="M34.89,54.08v.65h.02c.28-.5.72-.74,1.33-.74.27,0,.49.04.67.11.18.07.32.18.43.31.11.13.19.29.23.47.04.18.07.38.07.6v2.69h-.67v-2.77c0-.25-.07-.45-.22-.6-.15-.15-.35-.22-.61-.22-.21,0-.38.03-.53.09-.15.06-.28.15-.38.27-.1.12-.17.25-.22.41-.05.16-.07.33-.07.51v2.31h-.67v-4.09h.63Z"/>
      <path class="st0" d="M40.55,54.08v.59h-.81v2.54c0,.08,0,.14.02.19.01.05.04.08.08.11.04.03.09.04.15.05.07,0,.15.01.26.01h.31v.59h-.51c-.17,0-.32-.01-.45-.04-.12-.02-.22-.07-.3-.13-.08-.06-.13-.15-.17-.27-.04-.12-.06-.27-.06-.46v-2.6h-.7v-.59h.7v-1.23h.67v1.23h.81Z"/>
      <path class="st0" d="M44.35,57.91c-.31.23-.69.35-1.15.35-.33,0-.61-.05-.85-.16-.24-.11-.44-.25-.6-.44-.16-.19-.29-.42-.37-.68-.08-.26-.13-.55-.14-.86,0-.31.05-.6.14-.85.09-.26.23-.48.4-.67.17-.19.37-.34.61-.44.23-.11.49-.16.77-.16.36,0,.67.07.91.23.24.15.43.34.58.57.14.23.25.48.3.76.06.27.08.53.07.78h-3.06c0,.18.02.35.06.51.05.16.12.3.23.43.11.12.24.22.4.3.16.07.36.11.58.11.28,0,.52-.07.7-.2.18-.13.3-.33.36-.6h.66c-.09.46-.29.8-.59,1.04ZM44.19,55.29c-.06-.14-.14-.26-.25-.37-.1-.1-.22-.18-.36-.25-.14-.06-.29-.09-.46-.09s-.33.03-.47.09c-.14.06-.26.14-.36.25-.1.11-.18.23-.24.37-.06.14-.09.29-.1.45h2.35c-.01-.16-.05-.31-.11-.45Z"/>
      <path class="st0" d="M51.15,53.3c-.25-.18-.57-.27-.96-.27-.16,0-.31.02-.47.05-.15.03-.29.08-.41.16-.12.07-.21.17-.28.3-.07.12-.11.28-.11.46,0,.17.05.32.15.42.1.11.24.2.41.26.17.07.36.13.58.17.22.04.44.09.66.15.22.05.44.11.66.19.22.07.41.17.58.29.17.12.31.27.41.46.1.18.15.42.15.7,0,.3-.07.56-.2.77-.13.21-.31.39-.52.52-.21.13-.45.23-.71.29-.26.06-.52.09-.78.09-.32,0-.62-.04-.9-.12-.28-.08-.53-.2-.74-.36-.21-.16-.38-.37-.51-.62-.12-.25-.19-.55-.19-.89h.71c0,.24.05.44.14.61.09.17.21.31.36.42.15.11.33.19.53.25.2.05.41.08.62.08.17,0,.34-.02.51-.05.17-.03.33-.09.46-.16.14-.08.25-.18.33-.31.08-.13.13-.3.13-.51s-.05-.35-.15-.47c-.1-.12-.24-.22-.41-.3-.17-.08-.37-.14-.58-.19-.22-.05-.44-.1-.66-.15-.22-.05-.44-.11-.66-.17-.22-.07-.41-.15-.58-.26-.17-.11-.31-.25-.41-.42-.1-.17-.15-.39-.15-.64,0-.28.06-.53.17-.74.12-.21.27-.38.46-.51.19-.13.41-.23.66-.3.25-.07.5-.1.75-.1.29,0,.56.03.81.1.25.07.47.18.65.32.19.15.33.33.44.56.11.22.17.49.18.8h-.71c-.04-.41-.19-.7-.44-.88Z"/>
      <path class="st0" d="M53.53,53.35v-.82h.67v.82h-.67ZM54.21,54.08v4.09h-.67v-4.09h.67Z"/>
      <path class="st0" d="M56.12,52.53v5.64h-.67v-5.64h.67Z"/>
      <path class="st0" d="M60.21,57.91c-.31.23-.69.35-1.15.35-.33,0-.61-.05-.85-.16-.24-.11-.44-.25-.61-.44-.16-.19-.29-.42-.37-.68-.08-.26-.13-.55-.14-.86,0-.31.05-.6.14-.85.09-.26.23-.48.4-.67.17-.19.37-.34.61-.44.23-.11.49-.16.77-.16.36,0,.67.07.91.23.24.15.43.34.58.57.14.23.24.48.3.76.06.27.08.53.07.78h-3.06c0,.18.02.35.06.51.05.16.12.3.23.43.11.12.24.22.4.3.16.07.36.11.58.11.28,0,.52-.07.7-.2.18-.13.3-.33.36-.6h.66c-.09.46-.29.8-.59,1.04ZM60.05,55.29c-.06-.14-.14-.26-.24-.37-.1-.1-.22-.18-.36-.25-.14-.06-.29-.09-.46-.09s-.33.03-.47.09c-.14.06-.26.14-.36.25-.1.11-.18.23-.24.37-.06.14-.09.29-.1.45h2.35c-.01-.16-.05-.31-.11-.45Z"/>
      <path class="st0" d="M62.35,54.08v.65h.02c.28-.5.72-.74,1.33-.74.27,0,.49.04.67.11.18.07.32.18.43.31.11.13.19.29.23.47.04.18.07.38.07.6v2.69h-.67v-2.77c0-.25-.07-.45-.22-.6-.15-.15-.35-.22-.61-.22-.21,0-.38.03-.53.09-.15.06-.28.15-.38.27-.1.12-.17.25-.23.41-.05.16-.07.33-.07.51v2.31h-.67v-4.09h.63Z"/>
      <path class="st0" d="M68.72,54.8c-.17-.14-.4-.21-.68-.21-.24,0-.45.04-.61.13-.16.09-.29.21-.39.36-.1.15-.17.32-.21.51-.04.19-.06.39-.06.6,0,.19.02.37.07.55.04.18.11.34.21.48.09.14.22.25.37.34.15.08.33.13.55.13.33,0,.59-.09.78-.26.19-.17.3-.42.34-.73h.69c-.07.51-.26.9-.57,1.17-.3.27-.72.41-1.24.41-.31,0-.59-.05-.83-.15-.24-.1-.44-.24-.6-.43-.16-.18-.28-.4-.36-.66-.08-.26-.12-.54-.12-.84s.04-.59.12-.86c.08-.27.2-.5.36-.7.16-.2.36-.35.6-.47.24-.11.52-.17.85-.17.23,0,.45.03.65.08.2.06.38.14.54.26.15.12.28.26.38.44.1.18.16.39.19.63h-.7c-.05-.26-.16-.46-.33-.6Z"/>
      <path class="st0" d="M70.72,53.35v-.82h.67v.82h-.67ZM71.39,54.08v4.09h-.67v-4.09h.67Z"/>
      <path class="st0" d="M72.49,55.29c.08-.26.21-.49.38-.68.17-.19.38-.34.62-.45.25-.11.53-.17.85-.17s.61.06.86.17c.24.11.45.26.62.45.17.19.3.42.38.68.08.26.13.54.13.84s-.04.58-.13.84c-.08.26-.21.48-.38.68-.17.19-.38.34-.62.45-.24.11-.53.16-.86.16s-.61-.05-.85-.16c-.25-.11-.46-.26-.62-.45-.17-.19-.3-.42-.38-.68-.08-.26-.13-.54-.13-.84s.04-.58.13-.84ZM73.18,56.79c.07.19.16.35.27.48.12.13.25.23.41.3.16.07.32.1.49.1s.34-.03.49-.1c.16-.07.29-.17.41-.3.12-.13.21-.29.27-.48.07-.19.1-.41.1-.66s-.03-.47-.1-.66c-.07-.19-.16-.35-.27-.49-.12-.13-.25-.23-.41-.3-.16-.07-.32-.1-.49-.1s-.34.03-.49.1c-.16.07-.29.17-.41.3-.12.13-.21.29-.27.49-.07.19-.1.41-.1.66s.03.47.1.66Z"/>
      <path class="st0" d="M77.8,57.26c.06.1.15.18.25.25.1.06.22.1.35.13.13.03.26.04.4.04.11,0,.22,0,.33-.02.12-.02.22-.04.32-.09.1-.04.18-.1.24-.19.06-.08.1-.19.1-.31,0-.17-.07-.31-.2-.4-.13-.09-.3-.16-.49-.22-.2-.06-.41-.11-.64-.15-.23-.04-.45-.11-.64-.19-.2-.08-.36-.2-.49-.34-.13-.15-.2-.35-.2-.62,0-.21.05-.38.14-.53.09-.15.21-.27.36-.36.15-.09.31-.16.49-.21.18-.04.36-.07.54-.07.23,0,.45.02.64.06.19.04.37.11.52.21.15.1.27.23.36.4.09.17.14.37.16.62h-.67c-.01-.13-.04-.24-.1-.33-.06-.09-.13-.16-.22-.21-.09-.05-.19-.09-.3-.11-.11-.02-.22-.04-.33-.04-.1,0-.2,0-.3.02-.1.02-.2.04-.28.08-.08.04-.15.09-.21.16-.05.07-.08.15-.08.26,0,.12.04.21.12.29.08.08.19.14.31.19.13.05.27.09.43.13.16.03.32.07.47.11.17.04.33.08.49.13.16.05.3.12.43.21.12.09.22.2.3.33.08.13.11.3.11.49,0,.25-.05.45-.15.62-.1.16-.24.3-.4.4-.17.1-.35.17-.56.21-.21.04-.42.06-.62.06-.23,0-.44-.02-.65-.07-.21-.05-.39-.12-.55-.23-.16-.11-.28-.25-.38-.43-.09-.18-.15-.39-.16-.64h.67c0,.15.04.27.1.38Z"/>
      <path class="st0" d="M84.53,58.26c-.17,0-.31-.05-.42-.15-.1-.1-.15-.26-.15-.48-.18.22-.4.38-.64.48-.24.1-.51.15-.79.15-.18,0-.36-.02-.52-.06-.16-.04-.31-.11-.43-.2-.12-.09-.22-.21-.29-.36-.07-.14-.11-.32-.11-.53,0-.23.04-.42.12-.57.08-.15.18-.27.31-.36.13-.09.28-.16.44-.21.17-.05.34-.09.51-.12.18-.04.36-.06.53-.08.17-.02.31-.04.44-.08.13-.03.23-.08.3-.15.07-.07.11-.16.11-.29,0-.15-.03-.27-.08-.36-.06-.09-.13-.16-.21-.21-.09-.05-.18-.08-.29-.09-.11-.02-.21-.02-.32-.02-.28,0-.52.05-.71.16-.19.11-.29.31-.31.61h-.67c.01-.25.06-.47.16-.64.09-.17.22-.31.38-.42.16-.11.34-.19.55-.23.21-.05.42-.07.65-.07.18,0,.37.01.55.04.18.03.35.08.49.16.15.08.27.2.36.34.09.15.13.34.13.58v2.1c0,.16,0,.27.03.35.02.07.08.11.19.11.06,0,.13-.01.21-.04v.52c-.12.07-.28.1-.48.1ZM83.59,56.2c-.14.03-.28.05-.43.07-.15.02-.3.04-.45.06-.15.02-.29.06-.41.11-.12.05-.22.13-.3.23-.08.1-.11.23-.11.4,0,.11.02.2.07.28.04.08.1.14.17.19.07.05.16.08.25.1.1.02.2.03.3.03.22,0,.41-.03.57-.09.16-.06.29-.14.39-.23.1-.09.17-.19.22-.3.05-.11.07-.21.07-.3v-.69c-.08.06-.2.11-.33.14Z"/>
      <path class="st0" d="M86.31,57.26c.06.1.15.18.25.25.1.06.22.1.35.13.13.03.26.04.4.04.11,0,.22,0,.33-.02.12-.02.22-.04.32-.09.1-.04.18-.1.24-.19.06-.08.1-.19.1-.31,0-.17-.07-.31-.2-.4-.13-.09-.3-.16-.49-.22-.2-.06-.41-.11-.64-.15-.23-.04-.45-.11-.64-.19-.2-.08-.36-.2-.49-.34-.13-.15-.2-.35-.2-.62,0-.21.05-.38.14-.53.09-.15.21-.27.36-.36.15-.09.31-.16.49-.21.18-.04.36-.07.54-.07.23,0,.45.02.64.06.19.04.37.11.52.21.15.1.27.23.36.4.09.17.14.37.16.62h-.67c-.01-.13-.04-.24-.1-.33-.06-.09-.13-.16-.22-.21-.09-.05-.19-.09-.3-.11-.11-.02-.22-.04-.33-.04-.1,0-.2,0-.3.02-.1.02-.2.04-.28.08-.08.04-.15.09-.21.16-.05.07-.08.15-.08.26,0,.12.04.21.12.29.08.08.19.14.31.19.13.05.27.09.43.13.16.03.32.07.47.11.17.04.33.08.49.13.16.05.3.12.43.21.12.09.22.2.3.33.08.13.11.3.11.49,0,.25-.05.45-.15.62-.1.16-.24.3-.4.4-.17.1-.35.17-.56.21-.21.04-.41.06-.62.06-.23,0-.44-.02-.65-.07-.21-.05-.39-.12-.55-.23-.16-.11-.28-.25-.38-.43-.1-.18-.15-.39-.16-.64h.67c0,.15.04.27.1.38Z"/>
    </g>
    <g>
      <path class="st0" d="M5.1,21.3h6.33c1.54,0,1.97.8,1.97,1.65v.64c0,.53-.3,1.08-1.2,1.17v.04c.79.04,1.49.34,1.49,1.47v.88c0,1.03-.92,1.58-2.15,1.58h-6.43v-7.42ZM12.4,22.9c0-.68-.75-.78-1.06-.78h-5.24v2.37h5.18c.54,0,1.11-.17,1.11-.91v-.68ZM12.68,26.37c0-.92-.51-1.07-1.42-1.07h-5.15v2.59h5.31c.93,0,1.27-.34,1.27-.99v-.53Z"/>
      <path class="st0" d="M14.93,25.53c0-1.72,1.22-2.12,2.89-2.12h1.26c1.67,0,2.89.4,2.89,2.12v1.15c0,1.72-1.22,2.12-2.89,2.12h-1.26c-1.67,0-2.89-.4-2.89-2.12v-1.15ZM21.09,25.58c0-1.22-.72-1.45-1.74-1.45h-1.79c-1.02,0-1.74.24-1.74,1.45v1.05c0,1.22.72,1.45,1.74,1.45h1.79c1.02,0,1.74-.24,1.74-1.45v-1.05Z"/>
      <path class="st0" d="M23.25,23.49h.82v.61h.02c.37-.54.87-.7,1.75-.7h1.42c.8,0,1.41.32,1.69.96.33-.71,1.03-.96,1.94-.96h1.07c1.41,0,2.28.61,2.28,1.8v3.5h-.88v-3.4c0-.6-.27-1.19-1.67-1.19h-.63c-1.59,0-1.8.66-1.8,1.5v3.09h-.88v-3.17c0-1.01-.32-1.42-1.72-1.42h-.88c-1.13,0-1.65.47-1.65,1.31v3.28h-.88v-5.23Z"/>
      <path class="st0" d="M35.7,21.3h.88v2.89h.02c.18-.54.67-.78,1.67-.78h1.34c2.12,0,2.77.59,2.77,2.26v.92c0,1.8-1.12,2.2-2.72,2.2h-1.23c-.92,0-1.64-.28-1.9-.91h-.02v.83h-.82v-7.42ZM41.5,25.56c0-1.21-.6-1.43-1.81-1.43h-1.19c-1.19,0-1.92.2-1.92,1.45v.99c0,.95.42,1.51,1.73,1.51h1.43c1.43,0,1.75-.48,1.75-1.5v-1.02Z"/>
      <path class="st0" d="M49,28.19h-.02c-.24.47-.51.6-1.87.6h-2.11c-1.33,0-1.68-.58-1.68-1.57v-.35c0-1.19.84-1.33,2.38-1.33h1.41c1.15,0,1.56.12,1.87.63h.02v-.98c0-.94-.59-1.07-1.95-1.07h-1.29c-1.11,0-1.32.27-1.32.7v.18h-.88v-.26c0-.95.6-1.34,2.18-1.34h1.39c1.64,0,2.75.25,2.75,1.8v3.5h-.88v-.52ZM49,27.08c0-.72-.64-.81-1.99-.81h-1.35c-1.14,0-1.45.16-1.45.82v.16c0,.58.2.83,1.41.83h1.17c1.6,0,2.21-.11,2.21-.77v-.24Z"/>
      <path class="st0" d="M51.04,26.91h.82v.26c0,.65.34.91,1.24.91h1.88c1.32,0,1.74-.05,1.74-.83v-.04c0-.5-.14-.78-1.2-.78h-2.72c-1.24,0-1.7-.4-1.7-1.39v-.31c0-.85.48-1.32,2.65-1.32h1.35c1.99,0,2.26.57,2.26,1.31v.28h-.82v-.05c0-.8-.53-.82-1.5-.82h-1.54c-1.26,0-1.54.12-1.54.72v.19c0,.43.14.68,1.07.68h2.33c1.32,0,2.22.13,2.22,1.55v.02c0,1.47-1.35,1.52-2.43,1.52h-1.62c-1.3,0-2.52,0-2.52-1.57v-.32Z"/>
    </g>
  </g>
  <path class="st1" d="M104.17,1.53c-12.55,0-22.72,10.17-22.72,22.72,0,1.75.2,3.44.58,5.08h1.05c-.46-1.61-.72-3.31-.72-5.08,0-10.16,8.23-18.39,18.39-18.39s18.39,8.23,18.39,18.39c0,1.76-.25,3.46-.72,5.08h7.89c.37-1.63.58-3.33.58-5.08,0-12.55-10.17-22.72-22.72-22.72ZM101.84,20.08c0,3.83-1.23,7.37-3.31,10.25l14.28-8.98-14.28-11.53c2.08,2.88,3.31,6.42,3.31,10.25Z"/>
</svg>