<svg xmlns="http://www.w3.org/2000/svg" viewBox="-18 85 327 327">
  <rect x="-18" y="85" width="327" height="327" rx="72" fill="#0a1929"/>
  <path fill="#38b6ff" d="M 49.851562 180.90625 C 11.292969 219.464844 0.960938 275.515625 18.789062 323.460938 L 47.621094 293.679688 L 191.253906 145.453125 C 196.050781 140.660156 196.183594 136.339844 191.390625 131.542969 L 145.335938 85.488281 Z M 242.984375 244.453125 L 267.5625 219.0625 C 290.996094 269.097656 282.082031 330.484375 240.753906 371.808594 C 203.074219 409.492188 148.78125 419.957031 101.441406 404.019531 C 96.851562 402.46875 94.824219 397.199219 98.675781 393.351562 Z M 242.984375 244.453125 " fill-opacity="1" fill-rule="evenodd"/>
  <path fill="#ffffff" d="M 47.691406 293.746094 L 18.855469 323.527344 C 25.40625 341.152344 35.738281 357.695312 49.917969 371.808594 C 57.683594 379.574219 66.191406 386.195312 75.175781 391.664062 C 80.980469 395.242188 84.832031 392.675781 86.855469 386.9375 L 120.082031 293.679688 L 47.691406 293.679688 Z M 170.523438 244.453125 L 242.984375 244.453125 L 267.5625 219.0625 C 261.082031 205.285156 252.167969 192.320312 240.753906 180.90625 L 212.257812 152.476562 C 210.90625 151.125 209.351562 150.519531 207.867188 150.519531 C 205.640625 150.519531 203.546875 152.003906 202.601562 154.636719 Z M 170.523438 244.453125 " fill-opacity="1" fill-rule="evenodd"/>
</svg>
