<svg xmlns="http://www.w3.org/2000/svg" xmlns:xlink="http://www.w3.org/1999/xlink" width="1549" zoomAndPan="magnify" viewBox="0 0 1161.75 412.499988" height="550" preserveAspectRatio="xMidYMid meet" version="1.0"><defs><g/><clipPath id="f468ea6ee4"><path d="M 12 14.605469 L 333 14.605469 L 333 402 L 12 402 Z M 12 14.605469 " clip-rule="nonzero"/></clipPath><clipPath id="20f476a78b"><rect x="0" width="507" y="0" height="220"/></clipPath><clipPath id="97ea21395a"><rect x="0" width="432" y="0" height="89"/></clipPath></defs><g clip-path="url(#f468ea6ee4)"><path fill="#132af7" d="M 58.949219 127.902344 C 13.164062 173.6875 0.898438 240.234375 22.066406 297.164062 L 56.300781 261.804688 L 226.847656 85.808594 C 232.539062 80.113281 232.699219 74.984375 227.007812 69.289062 L 172.324219 14.605469 Z M 288.265625 203.351562 L 317.453125 173.203125 C 345.273438 232.617188 334.691406 305.503906 285.621094 354.574219 C 240.878906 399.316406 176.414062 411.742188 120.207031 392.820312 C 114.753906 390.976562 112.347656 384.722656 116.917969 380.152344 Z M 288.265625 203.351562 " fill-opacity="1" fill-rule="evenodd"/></g><path fill="#38b6ff" d="M 56.382812 261.886719 L 22.144531 297.246094 C 29.921875 318.171875 42.191406 337.816406 59.027344 354.574219 C 68.25 363.792969 78.351562 371.652344 89.015625 378.148438 C 95.910156 382.398438 100.480469 379.351562 102.886719 372.535156 L 142.335938 261.804688 L 56.382812 261.804688 Z M 202.230469 203.351562 L 288.265625 203.351562 L 317.453125 173.203125 C 309.753906 156.847656 299.171875 141.453125 285.621094 127.902344 L 251.785156 94.148438 C 250.179688 92.542969 248.335938 91.820312 246.570312 91.820312 C 243.925781 91.820312 241.441406 93.585938 240.316406 96.710938 Z M 202.230469 203.351562 " fill-opacity="1" fill-rule="evenodd"/><g transform="matrix(1, 0, 0, 1, 400, 67)"><g clip-path="url(#20f476a78b)"><g fill="#ffffff" fill-opacity="1"><g transform="translate(0.406151, 162.860535)"><g><path d="M 105.78125 -110.828125 L 105.78125 0 L 78.78125 0 L 78.78125 -45.625 L 36.78125 -45.625 L 36.78125 0 L 9.78125 0 L 9.78125 -110.828125 L 36.78125 -110.828125 L 36.78125 -67.40625 L 78.78125 -67.40625 L 78.78125 -110.828125 Z M 105.78125 -110.828125 "/></g></g></g><g fill="#ffffff" fill-opacity="1"><g transform="translate(115.809748, 162.860535)"><g><path d="M 36.78125 -110.828125 L 36.78125 0 L 9.78125 0 L 9.78125 -110.828125 Z M 36.78125 -110.828125 "/></g></g></g><g fill="#ffffff" fill-opacity="1"><g transform="translate(162.38165, 162.860535)"><g><path d="M 51.3125 -110.828125 C 62.988281 -110.828125 73.195312 -108.507812 81.9375 -103.875 C 90.675781 -99.25 97.4375 -92.75 102.21875 -84.375 C 107.007812 -76.007812 109.40625 -66.359375 109.40625 -55.421875 C 109.40625 -44.578125 107.007812 -34.941406 102.21875 -26.515625 C 97.4375 -18.097656 90.648438 -11.570312 81.859375 -6.9375 C 73.066406 -2.3125 62.882812 0 51.3125 0 L 9.78125 0 L 9.78125 -110.828125 Z M 49.578125 -23.359375 C 59.785156 -23.359375 67.726562 -26.144531 73.40625 -31.71875 C 79.09375 -37.300781 81.9375 -45.203125 81.9375 -55.421875 C 81.9375 -65.628906 79.09375 -73.570312 73.40625 -79.25 C 67.726562 -84.9375 59.785156 -87.78125 49.578125 -87.78125 L 36.78125 -87.78125 L 36.78125 -23.359375 Z M 49.578125 -23.359375 "/></g></g></g><g fill="#ffffff" fill-opacity="1"><g transform="translate(277.153747, 162.860535)"><g><path d="M 66.3125 0 L 43.25 -41.84375 L 36.78125 -41.84375 L 36.78125 0 L 9.78125 0 L 9.78125 -110.828125 L 55.09375 -110.828125 C 63.832031 -110.828125 71.28125 -109.300781 77.4375 -106.25 C 83.59375 -103.195312 88.195312 -99.007812 91.25 -93.6875 C 94.300781 -88.375 95.828125 -82.457031 95.828125 -75.9375 C 95.828125 -68.570312 93.75 -61.992188 89.59375 -56.203125 C 85.4375 -50.410156 79.304688 -46.304688 71.203125 -43.890625 L 96.78125 0 Z M 36.78125 -60.9375 L 53.515625 -60.9375 C 58.460938 -60.9375 62.171875 -62.144531 64.640625 -64.5625 C 67.117188 -66.988281 68.359375 -70.410156 68.359375 -74.828125 C 68.359375 -79.035156 67.117188 -82.347656 64.640625 -84.765625 C 62.171875 -87.191406 58.460938 -88.40625 53.515625 -88.40625 L 36.78125 -88.40625 Z M 36.78125 -60.9375 "/></g></g></g><g fill="#ffffff" fill-opacity="1"><g transform="translate(380.085538, 162.860535)"><g><path d="M 62.203125 1.109375 C 51.785156 1.109375 42.234375 -1.3125 33.546875 -6.15625 C 24.867188 -11 17.972656 -17.757812 12.859375 -26.4375 C 7.753906 -35.125 5.203125 -44.890625 5.203125 -55.734375 C 5.203125 -66.566406 7.753906 -76.296875 12.859375 -84.921875 C 17.972656 -93.554688 24.867188 -100.296875 33.546875 -105.140625 C 42.234375 -109.984375 51.785156 -112.40625 62.203125 -112.40625 C 72.617188 -112.40625 82.164062 -109.984375 90.84375 -105.140625 C 99.53125 -100.296875 106.375 -93.554688 111.375 -84.921875 C 116.375 -76.296875 118.875 -66.566406 118.875 -55.734375 C 118.875 -44.890625 116.347656 -35.125 111.296875 -26.4375 C 106.242188 -17.757812 99.398438 -11 90.765625 -6.15625 C 82.140625 -1.3125 72.617188 1.109375 62.203125 1.109375 Z M 62.203125 -23.515625 C 71.046875 -23.515625 78.125 -26.460938 83.4375 -32.359375 C 88.75 -38.253906 91.40625 -46.046875 91.40625 -55.734375 C 91.40625 -65.515625 88.75 -73.328125 83.4375 -79.171875 C 78.125 -85.015625 71.046875 -87.9375 62.203125 -87.9375 C 53.253906 -87.9375 46.125 -85.039062 40.8125 -79.25 C 35.5 -73.457031 32.84375 -65.617188 32.84375 -55.734375 C 32.84375 -45.941406 35.5 -38.125 40.8125 -32.28125 C 46.125 -26.4375 53.253906 -23.515625 62.203125 -23.515625 Z M 62.203125 -23.515625 "/></g></g></g></g></g><g transform="matrix(1, 0, 0, 1, 400, 257)"><g clip-path="url(#97ea21395a)"><g fill="#38b6ff" fill-opacity="1"><g transform="translate(0.406151, 69.658632)"><g><path d="M 41.546875 0 L 30.3125 -15.78125 C 29.050781 -15.644531 27.742188 -15.578125 26.390625 -15.578125 L 13.1875 -15.578125 L 13.1875 0 L 8 0 L 8 -49.125 L 26.390625 -49.125 C 32.648438 -49.125 37.554688 -47.625 41.109375 -44.625 C 44.671875 -41.632812 46.453125 -37.519531 46.453125 -32.28125 C 46.453125 -28.445312 45.476562 -25.207031 43.53125 -22.5625 C 41.59375 -19.914062 38.820312 -18.007812 35.21875 -16.84375 L 47.21875 0 Z M 26.25 -20 C 31.113281 -20 34.832031 -21.070312 37.40625 -23.21875 C 39.976562 -25.375 41.265625 -28.394531 41.265625 -32.28125 C 41.265625 -36.257812 39.976562 -39.3125 37.40625 -41.4375 C 34.832031 -43.5625 31.113281 -44.625 26.25 -44.625 L 13.1875 -44.625 L 13.1875 -20 Z M 26.25 -20 "/></g></g></g><g fill="#38b6ff" fill-opacity="1"><g transform="translate(65.160742, 69.658632)"><g><path d="M 42.734375 -4.484375 L 42.734375 0 L 8 0 L 8 -49.125 L 41.6875 -49.125 L 41.6875 -44.625 L 13.1875 -44.625 L 13.1875 -27.15625 L 38.59375 -27.15625 L 38.59375 -22.734375 L 13.1875 -22.734375 L 13.1875 -4.484375 Z M 42.734375 -4.484375 "/></g></g></g><g fill="#38b6ff" fill-opacity="1"><g transform="translate(126.127234, 69.658632)"><g><path d="M 21.546875 0.421875 C 17.890625 0.421875 14.390625 -0.160156 11.046875 -1.328125 C 7.703125 -2.503906 5.117188 -4.050781 3.296875 -5.96875 L 5.328125 -9.96875 C 7.109375 -8.1875 9.472656 -6.742188 12.421875 -5.640625 C 15.367188 -4.546875 18.410156 -4 21.546875 -4 C 25.941406 -4 29.238281 -4.804688 31.4375 -6.421875 C 33.632812 -8.035156 34.734375 -10.128906 34.734375 -12.703125 C 34.734375 -14.660156 34.132812 -16.222656 32.9375 -17.390625 C 31.75 -18.566406 30.289062 -19.46875 28.5625 -20.09375 C 26.832031 -20.726562 24.421875 -21.421875 21.328125 -22.171875 C 17.628906 -23.109375 14.679688 -24.007812 12.484375 -24.875 C 10.285156 -25.738281 8.398438 -27.054688 6.828125 -28.828125 C 5.265625 -30.609375 4.484375 -33.019531 4.484375 -36.0625 C 4.484375 -38.539062 5.140625 -40.796875 6.453125 -42.828125 C 7.765625 -44.867188 9.773438 -46.5 12.484375 -47.71875 C 15.203125 -48.9375 18.570312 -49.546875 22.59375 -49.546875 C 25.40625 -49.546875 28.15625 -49.15625 30.84375 -48.375 C 33.53125 -47.601562 35.859375 -46.539062 37.828125 -45.1875 L 36.0625 -41.046875 C 34.007812 -42.398438 31.8125 -43.414062 29.46875 -44.09375 C 27.132812 -44.78125 24.84375 -45.125 22.59375 -45.125 C 18.289062 -45.125 15.050781 -44.289062 12.875 -42.625 C 10.695312 -40.96875 9.609375 -38.828125 9.609375 -36.203125 C 9.609375 -34.242188 10.203125 -32.664062 11.390625 -31.46875 C 12.585938 -30.28125 14.085938 -29.367188 15.890625 -28.734375 C 17.691406 -28.097656 20.113281 -27.410156 23.15625 -26.671875 C 26.757812 -25.773438 29.671875 -24.894531 31.890625 -24.03125 C 34.109375 -23.164062 35.988281 -21.851562 37.53125 -20.09375 C 39.082031 -18.34375 39.859375 -15.972656 39.859375 -12.984375 C 39.859375 -10.503906 39.191406 -8.242188 37.859375 -6.203125 C 36.523438 -4.171875 34.476562 -2.554688 31.71875 -1.359375 C 28.957031 -0.171875 25.566406 0.421875 21.546875 0.421875 Z M 21.546875 0.421875 "/></g></g></g><g fill="#38b6ff" fill-opacity="1"><g transform="translate(183.305568, 69.658632)"><g><path d="M 29.328125 0.421875 C 24.460938 0.421875 20.078125 -0.648438 16.171875 -2.796875 C 12.265625 -4.953125 9.203125 -7.9375 6.984375 -11.75 C 4.765625 -15.5625 3.65625 -19.832031 3.65625 -24.5625 C 3.65625 -29.28125 4.765625 -33.546875 6.984375 -37.359375 C 9.203125 -41.171875 12.273438 -44.15625 16.203125 -46.3125 C 20.140625 -48.46875 24.539062 -49.546875 29.40625 -49.546875 C 33.050781 -49.546875 36.414062 -48.9375 39.5 -47.71875 C 42.59375 -46.5 45.210938 -44.722656 47.359375 -42.390625 L 44.0625 -39.078125 C 40.226562 -42.960938 35.390625 -44.90625 29.546875 -44.90625 C 25.660156 -44.90625 22.125 -44.015625 18.9375 -42.234375 C 15.757812 -40.460938 13.269531 -38.03125 11.46875 -34.9375 C 9.664062 -31.851562 8.765625 -28.394531 8.765625 -24.5625 C 8.765625 -20.726562 9.664062 -17.265625 11.46875 -14.171875 C 13.269531 -11.085938 15.757812 -8.65625 18.9375 -6.875 C 22.125 -5.09375 25.660156 -4.203125 29.546875 -4.203125 C 35.441406 -4.203125 40.28125 -6.171875 44.0625 -10.109375 L 47.359375 -6.8125 C 45.210938 -4.46875 42.582031 -2.675781 39.46875 -1.4375 C 36.363281 -0.195312 32.984375 0.421875 29.328125 0.421875 Z M 29.328125 0.421875 "/></g></g></g><g fill="#38b6ff" fill-opacity="1"><g transform="translate(247.779564, 69.658632)"><g><path d="M 38.8125 -13.125 L 11.4375 -13.125 L 5.546875 0 L 0.140625 0 L 22.59375 -49.125 L 27.71875 -49.125 L 50.171875 0 L 44.703125 0 Z M 36.90625 -17.328125 L 25.125 -43.71875 L 13.328125 -17.328125 Z M 36.90625 -17.328125 "/></g></g></g><g fill="#38b6ff" fill-opacity="1"><g transform="translate(312.11323, 69.658632)"><g><path d="M 17.546875 -44.625 L 0.28125 -44.625 L 0.28125 -49.125 L 40 -49.125 L 40 -44.625 L 22.734375 -44.625 L 22.734375 0 L 17.546875 0 Z M 17.546875 -44.625 "/></g></g></g><g fill="#38b6ff" fill-opacity="1"><g transform="translate(366.415393, 69.658632)"><g><path d="M 42.734375 -4.484375 L 42.734375 0 L 8 0 L 8 -49.125 L 41.6875 -49.125 L 41.6875 -44.625 L 13.1875 -44.625 L 13.1875 -27.15625 L 38.59375 -27.15625 L 38.59375 -22.734375 L 13.1875 -22.734375 L 13.1875 -4.484375 Z M 42.734375 -4.484375 "/></g></g></g></g></g></svg>