<svg xmlns="http://www.w3.org/2000/svg" xmlns:xlink="http://www.w3.org/1999/xlink" width="928" zoomAndPan="magnify" viewBox="2 78 928 342" height="342" preserveAspectRatio="xMidYMid meet" version="1.0"><defs><g/><clipPath id="f230cfa4a2"><path d="M 10 85.488281 L 281 85.488281 L 281 412 L 10 412 Z M 10 85.488281 " clip-rule="nonzero"/></clipPath><clipPath id="bcb8df553c"><rect x="0" width="602" y="0" height="261"/></clipPath><clipPath id="08fc7326e6"><rect x="0" width="512" y="0" height="105"/></clipPath></defs><g clip-path="url(#f230cfa4a2)"><path fill="#38b6ff" d="M 49.851562 180.90625 C 11.292969 219.464844 0.960938 275.515625 18.789062 323.460938 L 47.621094 293.679688 L 191.253906 145.453125 C 196.050781 140.660156 196.183594 136.339844 191.390625 131.542969 L 145.335938 85.488281 Z M 242.984375 244.453125 L 267.5625 219.0625 C 290.996094 269.097656 282.082031 330.484375 240.753906 371.808594 C 203.074219 409.492188 148.78125 419.957031 101.441406 404.019531 C 96.851562 402.46875 94.824219 397.199219 98.675781 393.351562 Z M 242.984375 244.453125 " fill-opacity="1" fill-rule="evenodd"/></g><path fill="#ffffff" d="M 47.691406 293.746094 L 18.855469 323.527344 C 25.40625 341.152344 35.738281 357.695312 49.917969 371.808594 C 57.683594 379.574219 66.191406 386.195312 75.175781 391.664062 C 80.980469 395.242188 84.832031 392.675781 86.855469 386.9375 L 120.082031 293.679688 L 47.691406 293.679688 Z M 170.523438 244.453125 L 242.984375 244.453125 L 267.5625 219.0625 C 261.082031 205.285156 252.167969 192.320312 240.753906 180.90625 L 212.257812 152.476562 C 210.90625 151.125 209.351562 150.519531 207.867188 150.519531 C 205.640625 150.519531 203.546875 152.003906 202.601562 154.636719 Z M 170.523438 244.453125 " fill-opacity="1" fill-rule="evenodd"/><g transform="matrix(1, 0, 0, 1, 329, 80)"><g clip-path="url(#bcb8df553c)"><g fill="#ffffff" fill-opacity="1"><g transform="translate(0.910732, 192.5038)"><g><path d="M 125.40625 -131.390625 L 125.40625 0 L 93.40625 0 L 93.40625 -54.09375 L 43.609375 -54.09375 L 43.609375 0 L 11.609375 0 L 11.609375 -131.390625 L 43.609375 -131.390625 L 43.609375 -79.921875 L 93.40625 -79.921875 L 93.40625 -131.390625 Z M 125.40625 -131.390625 "/></g></g></g><g fill="#ffffff" fill-opacity="1"><g transform="translate(137.723769, 192.5038)"><g><path d="M 43.609375 -131.390625 L 43.609375 0 L 11.609375 0 L 11.609375 -131.390625 Z M 43.609375 -131.390625 "/></g></g></g><g fill="#ffffff" fill-opacity="1"><g transform="translate(192.935597, 192.5038)"><g><path d="M 60.828125 -131.390625 C 74.679688 -131.390625 86.785156 -128.644531 97.140625 -123.15625 C 107.492188 -117.664062 115.507812 -109.957031 121.1875 -100.03125 C 126.863281 -90.113281 129.703125 -78.671875 129.703125 -65.703125 C 129.703125 -52.847656 126.863281 -41.425781 121.1875 -31.4375 C 115.507812 -21.457031 107.460938 -13.722656 97.046875 -8.234375 C 86.628906 -2.742188 74.554688 0 60.828125 0 L 11.609375 0 L 11.609375 -131.390625 Z M 58.765625 -27.703125 C 70.867188 -27.703125 80.289062 -31.007812 87.03125 -37.625 C 93.769531 -44.238281 97.140625 -53.597656 97.140625 -65.703125 C 97.140625 -77.804688 93.769531 -87.222656 87.03125 -93.953125 C 80.289062 -100.691406 70.867188 -104.0625 58.765625 -104.0625 L 43.609375 -104.0625 L 43.609375 -27.703125 Z M 58.765625 -27.703125 "/></g></g></g><g fill="#ffffff" fill-opacity="1"><g transform="translate(328.99998, 192.5038)"><g><path d="M 78.609375 0 L 51.28125 -49.59375 L 43.609375 -49.59375 L 43.609375 0 L 11.609375 0 L 11.609375 -131.390625 L 65.328125 -131.390625 C 75.679688 -131.390625 84.503906 -129.578125 91.796875 -125.953125 C 99.097656 -122.335938 104.554688 -117.378906 108.171875 -111.078125 C 111.796875 -104.785156 113.609375 -97.769531 113.609375 -90.03125 C 113.609375 -81.289062 111.144531 -73.488281 106.21875 -66.625 C 101.289062 -59.769531 94.023438 -54.90625 84.421875 -52.03125 L 114.734375 0 Z M 43.609375 -72.25 L 63.453125 -72.25 C 69.316406 -72.25 73.710938 -73.679688 76.640625 -76.546875 C 79.578125 -79.421875 81.046875 -83.476562 81.046875 -88.71875 C 81.046875 -93.707031 79.578125 -97.632812 76.640625 -100.5 C 73.710938 -103.375 69.316406 -104.8125 63.453125 -104.8125 L 43.609375 -104.8125 Z M 43.609375 -72.25 "/></g></g></g><g fill="#ffffff" fill-opacity="1"><g transform="translate(451.027468, 192.5038)"><g><path d="M 73.75 1.3125 C 61.394531 1.3125 50.066406 -1.554688 39.765625 -7.296875 C 29.472656 -13.035156 21.300781 -21.050781 15.25 -31.34375 C 9.195312 -41.644531 6.171875 -53.222656 6.171875 -66.078125 C 6.171875 -78.921875 9.195312 -90.457031 15.25 -100.6875 C 21.300781 -110.925781 29.472656 -118.914062 39.765625 -124.65625 C 50.066406 -130.394531 61.394531 -133.265625 73.75 -133.265625 C 86.101562 -133.265625 97.425781 -130.394531 107.71875 -124.65625 C 118.007812 -118.914062 126.117188 -110.925781 132.046875 -100.6875 C 137.972656 -90.457031 140.9375 -78.921875 140.9375 -66.078125 C 140.9375 -53.222656 137.941406 -41.644531 131.953125 -31.34375 C 125.960938 -21.050781 117.851562 -13.035156 107.625 -7.296875 C 97.394531 -1.554688 86.101562 1.3125 73.75 1.3125 Z M 73.75 -27.890625 C 84.226562 -27.890625 92.617188 -31.382812 98.921875 -38.375 C 105.222656 -45.363281 108.375 -54.597656 108.375 -66.078125 C 108.375 -77.679688 105.222656 -86.941406 98.921875 -93.859375 C 92.617188 -100.785156 84.226562 -104.25 73.75 -104.25 C 63.144531 -104.25 54.691406 -100.816406 48.390625 -93.953125 C 42.085938 -87.097656 38.9375 -77.804688 38.9375 -66.078125 C 38.9375 -54.472656 42.085938 -45.207031 48.390625 -38.28125 C 54.691406 -31.351562 63.144531 -27.890625 73.75 -27.890625 Z M 73.75 -27.890625 "/></g></g></g></g></g><g transform="matrix(1, 0, 0, 1, 329, 305)"><g clip-path="url(#08fc7326e6)"><g fill="#38b6ff" fill-opacity="1"><g transform="translate(0.910732, 82.259679)"><g><path d="M 49.25 0 L 35.9375 -18.71875 C 34.4375 -18.550781 32.882812 -18.46875 31.28125 -18.46875 L 15.640625 -18.46875 L 15.640625 0 L 9.484375 0 L 9.484375 -58.234375 L 31.28125 -58.234375 C 38.707031 -58.234375 44.523438 -56.457031 48.734375 -52.90625 C 52.953125 -49.351562 55.0625 -44.472656 55.0625 -38.265625 C 55.0625 -33.710938 53.910156 -29.867188 51.609375 -26.734375 C 49.316406 -23.609375 46.035156 -21.351562 41.765625 -19.96875 L 55.984375 0 Z M 31.109375 -23.703125 C 36.878906 -23.703125 41.289062 -24.976562 44.34375 -27.53125 C 47.394531 -30.082031 48.921875 -33.660156 48.921875 -38.265625 C 48.921875 -42.984375 47.394531 -46.601562 44.34375 -49.125 C 41.289062 -51.644531 36.878906 -52.90625 31.109375 -52.90625 L 15.640625 -52.90625 L 15.640625 -23.703125 Z M 31.109375 -23.703125 "/></g></g></g><g fill="#38b6ff" fill-opacity="1"><g transform="translate(77.678472, 82.259679)"><g><path d="M 50.65625 -5.328125 L 50.65625 0 L 9.484375 0 L 9.484375 -58.234375 L 49.40625 -58.234375 L 49.40625 -52.90625 L 15.640625 -52.90625 L 15.640625 -32.1875 L 45.75 -32.1875 L 45.75 -26.953125 L 15.640625 -26.953125 L 15.640625 -5.328125 Z M 50.65625 -5.328125 "/></g></g></g><g fill="#38b6ff" fill-opacity="1"><g transform="translate(149.955352, 82.259679)"><g><path d="M 25.53125 0.5 C 21.207031 0.5 17.0625 -0.191406 13.09375 -1.578125 C 9.132812 -2.960938 6.070312 -4.796875 3.90625 -7.078125 L 6.328125 -11.8125 C 8.429688 -9.707031 11.226562 -8 14.71875 -6.6875 C 18.21875 -5.382812 21.820312 -4.734375 25.53125 -4.734375 C 30.75 -4.734375 34.660156 -5.691406 37.265625 -7.609375 C 39.867188 -9.523438 41.171875 -12.007812 41.171875 -15.0625 C 41.171875 -17.382812 40.460938 -19.238281 39.046875 -20.625 C 37.640625 -22.007812 35.910156 -23.078125 33.859375 -23.828125 C 31.804688 -24.578125 28.945312 -25.394531 25.28125 -26.28125 C 20.90625 -27.394531 17.410156 -28.460938 14.796875 -29.484375 C 12.191406 -30.515625 9.960938 -32.082031 8.109375 -34.1875 C 6.253906 -36.289062 5.328125 -39.148438 5.328125 -42.765625 C 5.328125 -45.703125 6.101562 -48.375 7.65625 -50.78125 C 9.207031 -53.195312 11.585938 -55.125 14.796875 -56.5625 C 18.015625 -58.007812 22.007812 -58.734375 26.78125 -58.734375 C 30.113281 -58.734375 33.375 -58.273438 36.5625 -57.359375 C 39.75 -56.441406 42.507812 -55.179688 44.84375 -53.578125 L 42.765625 -48.671875 C 40.316406 -50.273438 37.707031 -51.476562 34.9375 -52.28125 C 32.164062 -53.082031 29.445312 -53.484375 26.78125 -53.484375 C 21.6875 -53.484375 17.847656 -52.5 15.265625 -50.53125 C 12.679688 -48.5625 11.390625 -46.023438 11.390625 -42.921875 C 11.390625 -40.597656 12.097656 -38.726562 13.515625 -37.3125 C 14.929688 -35.894531 16.707031 -34.8125 18.84375 -34.0625 C 20.976562 -33.3125 23.847656 -32.492188 27.453125 -31.609375 C 31.722656 -30.554688 35.175781 -29.515625 37.8125 -28.484375 C 40.445312 -27.460938 42.675781 -25.910156 44.5 -23.828125 C 46.332031 -21.753906 47.25 -18.941406 47.25 -15.390625 C 47.25 -12.453125 46.457031 -9.773438 44.875 -7.359375 C 43.300781 -4.953125 40.875 -3.039062 37.59375 -1.625 C 34.320312 -0.207031 30.300781 0.5 25.53125 0.5 Z M 25.53125 0.5 "/></g></g></g><g fill="#38b6ff" fill-opacity="1"><g transform="translate(217.741303, 82.259679)"><g><path d="M 34.765625 0.5 C 29.003906 0.5 23.804688 -0.773438 19.171875 -3.328125 C 14.546875 -5.878906 10.914062 -9.414062 8.28125 -13.9375 C 5.644531 -18.457031 4.328125 -23.515625 4.328125 -29.109375 C 4.328125 -34.710938 5.644531 -39.773438 8.28125 -44.296875 C 10.914062 -48.816406 14.5625 -52.351562 19.21875 -54.90625 C 23.875 -57.457031 29.085938 -58.734375 34.859375 -58.734375 C 39.179688 -58.734375 43.171875 -58.007812 46.828125 -56.5625 C 50.492188 -55.125 53.601562 -53.019531 56.15625 -50.25 L 52.234375 -46.328125 C 47.691406 -50.929688 41.953125 -53.234375 35.015625 -53.234375 C 30.421875 -53.234375 26.234375 -52.179688 22.453125 -50.078125 C 18.679688 -47.972656 15.726562 -45.085938 13.59375 -41.421875 C 11.46875 -37.765625 10.40625 -33.660156 10.40625 -29.109375 C 10.40625 -24.566406 11.46875 -20.460938 13.59375 -16.796875 C 15.726562 -13.140625 18.679688 -10.253906 22.453125 -8.140625 C 26.234375 -6.035156 30.421875 -4.984375 35.015625 -4.984375 C 42.003906 -4.984375 47.742188 -7.316406 52.234375 -11.984375 L 56.15625 -8.0625 C 53.601562 -5.289062 50.484375 -3.171875 46.796875 -1.703125 C 43.109375 -0.234375 39.097656 0.5 34.765625 0.5 Z M 34.765625 0.5 "/></g></g></g><g fill="#38b6ff" fill-opacity="1"><g transform="translate(294.176393, 82.259679)"><g><path d="M 46 -15.5625 L 13.5625 -15.5625 L 6.578125 0 L 0.171875 0 L 26.78125 -58.234375 L 32.859375 -58.234375 L 59.484375 0 L 52.984375 0 Z M 43.75 -20.546875 L 29.78125 -51.828125 L 15.8125 -20.546875 Z M 43.75 -20.546875 "/></g></g></g><g fill="#38b6ff" fill-opacity="1"><g transform="translate(370.445119, 82.259679)"><g><path d="M 20.796875 -52.90625 L 0.328125 -52.90625 L 0.328125 -58.234375 L 47.421875 -58.234375 L 47.421875 -52.90625 L 26.953125 -52.90625 L 26.953125 0 L 20.796875 0 Z M 20.796875 -52.90625 "/></g></g></g><g fill="#38b6ff" fill-opacity="1"><g transform="translate(434.821316, 82.259679)"><g><path d="M 50.65625 -5.328125 L 50.65625 0 L 9.484375 0 L 9.484375 -58.234375 L 49.40625 -58.234375 L 49.40625 -52.90625 L 15.640625 -52.90625 L 15.640625 -32.1875 L 45.75 -32.1875 L 45.75 -26.953125 L 15.640625 -26.953125 L 15.640625 -5.328125 Z M 50.65625 -5.328125 "/></g></g></g></g></g></svg>